# xmcd
#
# Track frame offsets:
#	225
#	21663
#	37297
#	54895
#	72281
#	86336
#	99813
#	112134
#	127954
#	141399
#	159390
#	176877
#	192193
#	205838
#	223023
#	242175
#
# Disc length: 3397 seconds
#
# Revision: 0
# Processed by: cddbd v1.5.2PL0 Copyright (c) Steve Scherf et al.
# Submitted via: audiograbber 1.83.01
#
DISCID=ed0d4210
DTITLE=Various Artist - Dreams of Love - CD 2
DYEAR=1900
DGENRE=Dream
TTITLE0=Waterloo - Impossible Dream
TTITLE1=Anthony Blue - Neverending Story
TTITLE2=Herve Vilard - Reviens
TTITLE3=Elton John - Daniel
TTITLE4=Dave - Runaway
TTITLE5=Johnny Logan - What's Another Year
TTITLE6=The Troggs - Wild Thing
TTITLE7=Sue Schell - Simple Thing
TTITLE8=Barry Manilow - One Voice
TTITLE9=Julia Migenes - Bacciana Brasileros
TTITLE10=Real Life - Send Me An Angel
TTITLE11=Bellamy Brothers - I Need More Of You
TTITLE12=Roger Whittaker - The First Hello The Last Goodbye
TTITLE13=KC And The Sunshine Band - Please Don't Go
TTITLE14=Howard Carpendale - Honey
TTITLE15=Neil Christian - That's Nice
EXTD=Schallplatte
EXTT0=
EXTT1=
EXTT2=
EXTT3=
EXTT4=
EXTT5=
EXTT6=
EXTT7=
EXTT8=
EXTT9=
EXTT10=
EXTT11=
EXTT12=
EXTT13=
EXTT14=
EXTT15=
PLAYORDER=
